<?xml version="1.0" encoding="UTF-8"?>
<!DOCTYPE svg PUBLIC "-//W3C//DTD SVG 1.1//EN" "http://www.w3.org/Graphics/SVG/1.1/DTD/svg11.dtd">
<svg xmlns="http://www.w3.org/2000/svg" version="1.1" width="225px" height="225px" style="shape-rendering:geometricPrecision; text-rendering:geometricPrecision; image-rendering:optimizeQuality; fill-rule:evenodd; clip-rule:evenodd" xmlns:xlink="http://www.w3.org/1999/xlink">
<g><path style="opacity:1" fill="#fefefe" d="M -0.5,-0.5 C 74.5,-0.5 149.5,-0.5 224.5,-0.5C 224.5,74.5 224.5,149.5 224.5,224.5C 149.5,224.5 74.5,224.5 -0.5,224.5C -0.5,149.5 -0.5,74.5 -0.5,-0.5 Z"/></g>
<g><path style="opacity:1" fill="#1a174f" d="M 134.5,35.5 C 134.5,50.8333 134.5,66.1667 134.5,81.5C 149.5,81.5 164.5,81.5 179.5,81.5C 182.675,81.8399 184.841,83.5066 186,86.5C 186.937,98.5714 186.604,110.571 185,122.5C 183.681,124.487 181.848,125.654 179.5,126C 164.837,126.5 150.17,126.667 135.5,126.5C 134.833,136.5 134.167,146.5 133.5,156.5C 125.212,137.92 115.379,120.253 104,103.5C 96.59,93.58 87.09,86.58 75.5,82.5C 80.1667,81.8333 84.8333,81.1667 89.5,80.5C 89.0311,64.7374 89.5311,49.0708 91,33.5C 92.214,31.9512 93.714,30.7845 95.5,30C 106.5,29.3333 117.5,29.3333 128.5,30C 131.607,30.7059 133.607,32.5392 134.5,35.5 Z"/></g>
<g><path style="opacity:1" fill="#8d8c98" d="M 89.5,80.5 C 84.8333,81.1667 80.1667,81.8333 75.5,82.5C 74.234,81.9101 72.9007,81.4101 71.5,81C 77.4908,80.5005 83.4908,80.3338 89.5,80.5 Z"/></g>
<g><path style="opacity:1" fill="#8f8f9e" d="M 134.5,35.5 C 135.496,50.324 135.829,65.324 135.5,80.5C 150.343,80.1707 165.01,80.504 179.5,81.5C 164.5,81.5 149.5,81.5 134.5,81.5C 134.5,66.1667 134.5,50.8333 134.5,35.5 Z"/></g>
<g><path style="opacity:1" fill="#62c19f" d="M 49.5,83.5 C 70.753,80.6364 87.9197,87.6364 101,104.5C 113.636,123.165 124.636,142.832 134,163.5C 136.783,167.951 139.95,172.117 143.5,176C 146.174,177.588 149.008,178.755 152,179.5C 158.312,178.175 163.312,174.841 167,169.5C 169.667,165.5 172.333,161.5 175,157.5C 170.24,171.841 162.74,184.674 152.5,196C 146.239,199.915 140.739,199.082 136,193.5C 134.333,191.167 132.667,188.833 131,186.5C 122.177,168.186 112.844,150.186 103,132.5C 95.2128,119.713 85.0461,109.213 72.5,101C 56.4305,93.0559 39.7639,91.3892 22.5,96C 31.0907,90.7011 40.0907,86.5345 49.5,83.5 Z"/></g>
<g><path style="opacity:1" fill="#61c19f" d="M 38.5,96.5 C 63.3797,96.1905 82.5464,106.524 96,127.5C 105.85,143.195 114.684,159.528 122.5,176.5C 113.184,177.665 103.851,177.832 94.5,177C 92.2739,175.773 90.7739,173.939 90,171.5C 89.5001,156.504 89.3334,141.504 89.5,126.5C 74.163,126.667 58.8297,126.5 43.5,126C 41.4299,125.052 39.9299,123.552 39,121.5C 38.5003,113.173 38.3336,104.84 38.5,96.5 Z"/></g>
<g><path style="opacity:1" fill="#69c2a3" d="M 192.5,119.5 C 193.649,119.791 194.316,120.624 194.5,122C 193.901,124.692 192.901,127.192 191.5,129.5C 193.025,133.855 195.192,137.855 198,141.5C 198.798,143.259 198.631,144.926 197.5,146.5C 193.813,143.647 190.647,140.314 188,136.5C 186.111,139.112 184.611,141.945 183.5,145C 184.791,147.05 185.291,149.217 185,151.5C 183.135,149.327 180.969,148.993 178.5,150.5C 177.571,149.311 177.238,147.978 177.5,146.5C 175.571,146.769 173.905,146.269 172.5,145C 174.715,143.956 177.048,143.29 179.5,143C 180.961,140.579 182.294,138.079 183.5,135.5C 178.872,134.338 174.206,133.338 169.5,132.5C 170.364,130.803 171.697,129.637 173.5,129C 178.167,128.667 182.833,128.333 187.5,128C 188.708,124.846 190.375,122.013 192.5,119.5 Z"/></g>
<g><path style="opacity:1" fill="#9394a9" d="M 135.5,126.5 C 135.667,137.172 135.5,147.839 135,158.5C 134.283,157.956 133.783,157.289 133.5,156.5C 134.167,146.5 134.833,136.5 135.5,126.5 Z"/></g>
</svg>
